<svg xmlns="http://www.w3.org/2000/svg" viewBox="0 0 200 200" width="200" height="200">
  <rect width="200" height="200" fill="#FFFFFF"/>
  <g fill="#111827">
    <rect x="10" y="10" width="50" height="50"/>
    <rect x="20" y="20" width="30" height="30" fill="#FFFFFF"/>
    <rect x="30" y="30" width="10" height="10" fill="#111827"/>
    <rect x="140" y="10" width="50" height="50"/>
    <rect x="150" y="20" width="30" height="30" fill="#FFFFFF"/>
    <rect x="160" y="30" width="10" height="10" fill="#111827"/>
    <rect x="10" y="140" width="50" height="50"/>
    <rect x="20" y="150" width="30" height="30" fill="#FFFFFF"/>
    <rect x="30" y="160" width="10" height="10" fill="#111827"/>
    <rect x="80" y="20" width="10" height="10"/>
    <rect x="100" y="10" width="10" height="10"/>
    <rect x="120" y="30" width="10" height="10"/>
    <rect x="80" y="50" width="10" height="10"/>
    <rect x="110" y="60" width="10" height="10"/>
    <rect x="130" y="50" width="10" height="10"/>
    <rect x="70" y="80" width="10" height="10"/>
    <rect x="90" y="90" width="10" height="10"/>
    <rect x="120" y="80" width="10" height="10"/>
    <rect x="150" y="100" width="10" height="10"/>
    <rect x="70" y="110" width="10" height="10"/>
    <rect x="100" y="120" width="10" height="10"/>
    <rect x="130" y="110" width="10" height="10"/>
    <rect x="80" y="140" width="10" height="10"/>
    <rect x="100" y="150" width="10" height="10"/>
    <rect x="120" y="160" width="10" height="10"/>
    <rect x="140" y="140" width="10" height="10"/>
    <rect x="160" y="160" width="10" height="10"/>
    <rect x="170" y="120" width="10" height="10"/>
    <rect x="90" y="170" width="10" height="10"/>
  </g>
  <text x="100" y="196" font-family="Arial" font-size="9" text-anchor="middle" fill="#2563EB">Billetera Digital</text>
</svg>
